<?xml version="1.0" encoding="utf-8"?>
<!-- Generator: Adobe Illustrator 27.1.1, SVG Export Plug-In . SVG Version: 6.00 Build 0)  -->
<svg version="1.1" id="Layer_1" xmlns="http://www.w3.org/2000/svg" xmlns:xlink="http://www.w3.org/1999/xlink" x="0px" y="0px"
	 viewBox="0 0 765.58 425.44" style="enable-background:new 0 0 765.58 425.44;" xml:space="preserve">
<style type="text/css">
	.st0{fill:#005461;}
	.st1{fill:#D4D404;}
	.st2{fill:#3088C8;}
	.st3{fill:#74B02E;}
	.st4{fill:#27AFBA;}
</style>
<g>
	<path class="st0" d="M129.71,327.82"/>
	<g>
		<polygon class="st0" points="283.2,140.91 300.55,160.97 330.91,135.76 307.6,108.38 284.29,127.36 267.21,107.57 236.31,132.78 
			260.17,160.15 		"/>
		<path class="st0" d="M332.76,232.48h-85.65c-18.8,0-32.03-2.93-39.71-8.81c-7.68-5.87-11.52-14.95-11.52-27.24
			c0-8.13,1.44-17.98,4.34-29.54l-2.71-2.71l-27.92,5.96c-4.34,13.01-6.51,24.85-6.51,35.51c0,22.77,6.59,40.16,19.79,52.18
			c13.19,12.02,32.25,18.02,57.19,18.02h130.64v-119.8h-37.95V232.48z"/>
		<path class="st0" d="M737.82,198.82c-12.77-15.36-29.67-31.47-52.85-45.56c-21.77-13.24-37.1-18.77-54.11-23.74
			c0.79,15.08-0.79,30.17,0,45.25c9.31,2.2,30.88,12.23,41.68,18.03c13.5,7.25,32.02,25.17,43.03,39.41
			c-22.55,0.09-45.1,0.19-67.65,0.28H624.4h-9.82h-34c5.69-9.22,8.55-20.09,8.55-32.62c0-11.79-2.28-22.63-6.84-32.53
			c-4.56-9.89-10.29-17.9-17.18-24.02c-6.9-6.11-14.01-9.17-21.35-9.17c-7.12,0-14.29,2.73-21.52,8.17
			c-7.23,5.45-14.07,12.9-20.52,22.35c-6.45,9.46-11.96,20.24-16.51,32.36c-4.25,11.29-7.27,23.11-9.1,35.45h-9.44h0h-22.77V72.57
			h-37.95v203.28h60.71h0h8.92c2.61,20.18,9.6,36.73,20.97,49.62c11.68,13.23,26.86,19.85,45.54,19.85
			c10.68,0,20.18-2.06,28.52-6.17c8.34-4.12,14.85-9.79,19.52-17.02c4.67-7.23,7.01-15.51,7.01-24.85c0-8.12-1.68-15.26-5-21.43
			h22.44h9.82h15.65c45.74,0.41,80.27,0.41,125.52,0.41v0C765.58,248.01,755.89,220.54,737.82,198.82z M511.06,203.37
			c4-9.23,8.67-16.62,14.01-22.19c5.34-5.56,10.56-8.34,15.68-8.34c5.56,0,10.51,2.73,14.85,8.17c4.34,5.45,6.51,12.07,6.51,19.85
			c0,9.56-4.56,17.01-13.68,22.35c-7.15,4.18-18.06,7.27-32.72,9.27h-12.77C504.53,221.91,507.23,212.2,511.06,203.37z
			 M563.94,301.61c-4.12,4-11.07,6.01-20.85,6.01c-10.9,0-19.63-3.12-26.19-9.34c-5.78-5.49-9.97-12.97-12.55-22.43h14.89
			c0,0,0,0,0,0s0,0,0,0h47.4c2.3,3.73,3.47,8.08,3.47,13.09C570.11,293.38,568.05,297.61,563.94,301.61z"/>
		<polygon class="st0" points="667.43,315.79 692.1,345.06 722.18,319.85 698.06,290.58 		"/>
	</g>
	<g>
		
			<rect x="58.73" y="41.4" transform="matrix(0.8128 -0.5825 0.5825 0.8128 -24.2113 63.5465)" class="st1" width="56.08" height="56.08"/>
		
			<rect x="125.73" y="11.09" transform="matrix(0.8128 -0.5825 0.5825 0.8128 5.9919 96.9021)" class="st2" width="56.08" height="56.08"/>
		
			<rect x="12.75" y="101.47" transform="matrix(0.8128 -0.5825 0.5825 0.8128 -67.8081 48.0067)" class="st3" width="56.08" height="56.08"/>
		
			<rect x="24.04" y="182.88" transform="matrix(0.8128 -0.5825 0.5825 0.8128 -113.1184 69.8235)" class="st4" width="56.08" height="56.08"/>
		
			<rect x="82.45" y="230.82" transform="matrix(0.8148 -0.5797 0.5797 0.8148 -129.6107 111.9989)" class="st1" width="56.08" height="56.08"/>
		<path class="st3" d="M172.95,137.47l26.99-19.35c0.06-0.05,0.08-0.13,0.03-0.2l-19.35-26.99c-0.05-0.06-0.13-0.08-0.2-0.03
			l-26.99,19.35c-0.06,0.05-0.08,0.13-0.03,0.2l19.35,26.99C172.79,137.5,172.88,137.52,172.95,137.47z"/>
		<path class="st4" d="M125.78,153.06l26.99-19.35c0.06-0.05,0.08-0.13,0.03-0.2l-19.35-26.99c-0.05-0.06-0.13-0.08-0.2-0.03
			l-26.99,19.35c-0.06,0.05-0.08,0.13-0.03,0.2l19.35,26.99C125.63,153.09,125.72,153.11,125.78,153.06z"/>
		<path class="st2" d="M99.54,199.6l26.99-19.35c0.06-0.05,0.08-0.13,0.03-0.2l-19.35-26.99c-0.05-0.06-0.13-0.08-0.2-0.03
			l-26.99,19.35c-0.06,0.05-0.08,0.13-0.03,0.2l19.35,26.99C99.38,199.63,99.47,199.65,99.54,199.6z"/>
	</g>
	<path d="M0,355.67"/>
	<g>
		<path class="st0" d="M447.38,347.97v54.71h-16.11v-54.71h-12.47v-15.04h12.47v-25.56h16.11v25.56h12.53v15.04H447.38z"/>
		<path class="st0" d="M240.82,370.33h-48.41c0.42,5.55,2.22,9.97,5.41,13.25c3.19,3.24,7.28,4.86,12.28,4.86
			c3.88,0,7.1-0.92,9.64-2.77c2.5-1.85,5.34-5.27,8.53-10.27l13.18,7.35c-2.03,3.47-4.19,6.44-6.45,8.91
			c-2.27,2.47-4.69,4.51-7.28,6.1c-2.59,1.6-5.39,2.76-8.39,3.5c-3.01,0.74-6.27,1.11-9.78,1.11c-10.08,0-18.17-3.24-24.28-9.71
			c-6.1-6.52-9.16-15.17-9.16-25.94c0-10.68,2.96-19.33,8.88-25.94c5.96-6.52,13.87-9.78,23.72-9.78c9.94,0,17.8,3.17,23.58,9.5
			c5.73,6.29,8.6,15.01,8.6,26.15L240.82,370.33z M224.8,357.57c-2.17-8.32-7.42-12.48-15.74-12.48c-1.9,0-3.68,0.29-5.34,0.87
			c-1.66,0.58-3.18,1.41-4.54,2.5c-1.36,1.09-2.53,2.39-3.5,3.92c-0.97,1.53-1.71,3.26-2.22,5.2H224.8z"/>
		<path class="st0" d="M259.2,307.37h16.11v31.36c5.73-5.16,12.05-7.73,18.98-7.73c7.88,0,14.18,2.55,18.9,7.66
			c4.01,4.44,6.01,11.53,6.01,21.27v42.75H303.1v-41.24c0-5.59-0.99-9.63-2.97-12.14c-1.98-2.51-5.17-3.76-9.56-3.76
			c-5.63,0-9.6,1.74-11.89,5.23c-2.24,3.53-3.37,9.6-3.37,18.19v33.73H259.2V307.37z"/>
		<path class="st0" d="M390.46,332.87h15.68v69.5h-15.68v-9.02c-6.43,6.01-13.34,9.02-20.74,9.02c-9.34,0-17.06-3.38-23.17-10.13
			c-6.06-6.89-9.09-15.49-9.09-25.8c0-10.13,3.03-18.57,9.09-25.32c6.06-6.75,13.64-10.13,22.75-10.13c7.86,0,14.91,3.24,21.15,9.71
			V332.87z M353.42,366.45c0,6.47,1.73,11.75,5.2,15.81c3.56,4.12,8.05,6.17,13.46,6.17c5.78,0,10.45-1.99,14.01-5.96
			c3.56-4.11,5.34-9.34,5.34-15.68c0-6.33-1.78-11.56-5.34-15.68c-3.56-4.02-8.18-6.03-13.87-6.03c-5.36,0-9.85,2.03-13.46,6.1
			C355.2,355.3,353.42,360.39,353.42,366.45z"/>
		<g>
			<path class="st0" d="M157.85,330.84v68.14c0,7-1.7,12.76-5.08,17.27c-3.39,4.51-8.35,7.57-14.89,9.19l-8.16-14.07
				c7.02-1.57,10.53-6.49,10.53-14.74v-65.78H157.85z"/>
		</g>
		
			<rect x="140.82" y="304.75" transform="matrix(0.5825 0.8128 -0.8128 0.5825 316.403 9.58)" class="st0" width="16.11" height="16.11"/>
	</g>
</g>
</svg>
